<svg width="105" height="105" viewBox="0 0 105 105" fill="none" xmlns="http://www.w3.org/2000/svg">
<path d="M96.7951 68.8194H87.9359C87.9359 68.1617 87.6078 67.1751 87.2796 66.5173L103.029 58.6247C104.67 57.6381 105.326 55.6649 104.342 54.0206C103.357 52.3763 101.717 52.0475 100.076 52.7052L85.3109 60.269C79.7329 47.7723 66.9363 39.2219 52.499 39.2219C34.7806 39.2219 20.0153 52.0475 17.0622 68.8194H8.20297C3.60931 68.8194 0 72.4368 0 77.0409C0 78.6852 0.656238 80.3295 1.64059 81.3161L13.1248 94.4705V96.7725C13.1248 101.377 16.7341 104.994 21.3277 104.994H83.6703C88.264 104.994 91.8733 101.377 91.8733 96.7725V94.4705L103.357 81.6449C104.342 80.3295 104.998 79.0141 104.998 77.3698C104.998 72.4368 101.389 68.8194 96.7951 68.8194ZM84.6547 68.8194H82.686L84.3266 68.1617C84.6547 68.1617 84.6547 68.4905 84.6547 68.8194ZM52.499 42.5105C65.6238 42.5105 77.108 50.4032 82.3579 61.5844L79.4048 62.8999C74.8111 53.0341 64.3113 45.7991 52.499 45.7991C38.3899 45.7991 26.5776 55.6649 23.6246 68.8194H20.3434C23.2964 53.6918 36.7493 42.5105 52.499 42.5105ZM67.5925 68.8194C64.9676 62.8999 59.3895 58.9536 52.499 58.9536C45.6085 58.9536 40.0305 62.8999 37.4056 68.8194H33.7963C36.4212 61.2556 43.6398 55.6649 52.1709 55.6649C60.0458 55.6649 67.2644 60.269 70.2175 67.5039L68.2487 68.8194H67.5925ZM52.499 65.5308C49.546 65.5308 46.921 66.8462 45.2804 68.8194H41.343C43.6398 64.873 47.9054 62.2422 52.499 62.2422C57.4208 62.2422 61.6864 64.873 63.6551 68.8194H59.7177C58.0771 66.8462 55.124 65.5308 52.499 65.5308ZM52.499 52.3763C41.9992 52.3763 33.4681 59.2824 30.5151 68.8194H27.2339C30.1869 57.6381 40.3586 49.0877 52.499 49.0877C62.9988 49.0877 72.1862 55.3361 76.4517 64.5442L73.4986 65.8596C69.8893 57.967 62.0145 52.3763 52.499 52.3763ZM85.3109 91.8396V96.7725C85.3109 97.7591 84.6547 98.4168 83.6703 98.4168H21.3277C20.3434 98.4168 19.6871 97.7591 19.6871 96.7725V91.8396L6.56238 77.0409C6.56238 76.0543 7.21862 75.3966 8.20297 75.3966H96.7951C97.7794 75.3966 98.4357 76.0543 98.4357 77.0409L85.3109 91.8396ZM26.2495 38.2353C26.5776 38.893 26.9058 39.2219 27.562 39.2219C28.5463 39.2219 29.2026 38.5642 29.2026 37.5776V37.2487C27.8901 34.289 29.2026 31.0004 30.5151 27.7118C32.1557 24.0943 33.7963 19.8191 31.8275 15.8728C31.4994 14.8862 30.8432 14.5573 29.8588 14.8862C29.2026 15.2151 28.8745 15.8728 28.8745 16.8594C30.1869 19.8191 28.8745 22.7789 27.562 26.3963C26.2495 30.0138 24.2808 33.9601 26.2495 38.2353ZM66.28 37.9065C66.6081 38.893 67.5925 39.2219 68.5769 38.5642C69.2331 38.2353 69.5612 37.5776 69.5612 36.591C68.2487 33.6313 69.5612 30.3427 70.8737 27.0541C72.5143 23.4366 74.1549 19.1614 72.1862 15.2151C71.858 14.5574 70.8737 13.8996 69.8893 14.5574C69.2331 14.5574 68.905 15.5439 68.905 16.2017C70.2175 19.1614 68.905 22.1212 67.5925 25.7386C65.9519 29.3561 64.3113 33.6313 66.28 37.9065C66.28 37.9065 65.9519 37.5776 66.28 37.9065ZM49.2178 23.4366C49.546 24.4232 50.5303 24.752 51.5147 24.0943C52.1709 24.0943 52.499 23.4366 52.499 22.7789V22.45C51.1866 19.4903 52.1709 16.2017 53.8115 12.913C55.4521 9.29558 57.0927 5.02039 55.124 1.07406C54.7959 0.416342 53.8115 -0.241389 53.1553 0.0874716C52.499 0.416332 51.8428 1.40292 52.1709 2.06064C53.4834 5.02039 52.1709 7.98013 50.8584 11.5976C49.2178 15.2151 47.5772 19.1614 49.2178 23.4366Z" fill="#D36100"/>
</svg>
